<svg width="64" height="65" viewBox="0 0 64 65" fill="none" xmlns="http://www.w3.org/2000/svg">
<path d="M51.7366 10.9861H12.2209V46.9249H51.7366V10.9861Z" fill="white"/>
<path fill-rule="evenodd" clip-rule="evenodd" d="M63.9787 32.0213C63.9787 49.6828 49.6615 64 32 64C14.3386 64 0.0212402 49.6828 0.0212402 32.0213C0.0212402 14.36 14.3386 0.0426025 32 0.0426025C49.6615 0.0426025 63.9787 14.36 63.9787 32.0213ZM22.9381 44.7472H16.7319C15.4278 44.7472 14.7837 44.7472 14.3909 44.496C13.9666 44.2209 13.7074 43.7653 13.676 43.2624C13.6524 42.7991 13.9745 42.2333 14.6187 41.102L29.9425 14.0917C30.5945 12.9448 30.9245 12.3713 31.3408 12.1592C31.7886 11.9314 32.3228 11.9314 32.7706 12.1592C33.187 12.3713 33.517 12.9448 34.169 14.0917L37.3192 19.5909L37.3353 19.6189C38.0395 20.8494 38.3967 21.4734 38.5526 22.1283C38.7254 22.8432 38.7254 23.5974 38.5526 24.3123C38.3955 24.9722 38.042 25.6007 37.3271 26.8497L29.2778 41.0785L29.257 41.1149C28.5481 42.3555 28.1889 42.9843 27.691 43.4587C27.1489 43.9773 26.4968 44.3542 25.7819 44.5667C25.1299 44.7472 24.3993 44.7472 22.9381 44.7472ZM38.6107 44.7472H47.5034C48.8154 44.7472 49.4754 44.7472 49.8684 44.4883C50.2925 44.2132 50.5595 43.7495 50.5834 43.2471C50.6059 42.7987 50.2908 42.2549 49.6734 41.1894C49.6521 41.1531 49.6308 41.1162 49.6091 41.0787L45.1547 33.4584L45.104 33.3726C44.478 32.3141 44.1621 31.7796 43.7563 31.573C43.3087 31.3452 42.782 31.3452 42.3344 31.573C41.9259 31.7851 41.596 32.3429 40.9439 33.4663L36.5053 41.0865L36.4901 41.1128C35.8404 42.2344 35.5157 42.7949 35.5391 43.2547C35.5705 43.7576 35.8297 44.2209 36.2539 44.496C36.6389 44.7472 37.2988 44.7472 38.6107 44.7472Z" fill="#E84142"/>
</svg>
