<svg width="64" height="64" viewBox="0 0 64 64" fill="none" xmlns="http://www.w3.org/2000/svg">
<g style="mix-blend-mode:luminosity" clip-path="url(#clip0_151_250)">
<path d="M19.5709 26.8934L31.9997 14.465L44.4349 26.8998L51.6669 19.6678L31.9997 0L12.3393 19.6614L19.5709 26.8934ZM0.000244141 31.999L7.23247 24.7668L14.4642 31.9986L7.23205 39.2307L0.000244141 31.999ZM19.5709 37.1066L31.9997 49.535L44.4346 37.1005L51.6705 44.3286L51.6669 44.3325L31.9997 64L12.3386 44.3392L12.3284 44.329L19.5709 37.1066ZM49.5365 32.003L56.7687 24.7708L64.0004 32.0025L56.7683 39.2348L49.5365 32.003Z" fill="#F3BA2F"/>
<path d="M39.335 31.9962H39.3382L31.9997 24.6576L26.5763 30.081H26.576L25.953 30.7043L24.6678 31.9898L24.6576 31.9997L24.6678 32.0102L31.9997 39.3424L39.3382 32.0038L39.3418 31.9997L39.335 31.9962Z" fill="#F3BA2F"/>
</g>
<defs>
<clipPath id="clip0_151_250">
<rect width="64" height="64" fill="white"/>
</clipPath>
</defs>
</svg>
