<svg width="64" height="64" viewBox="0 0 64 64" fill="none" xmlns="http://www.w3.org/2000/svg">
<g style="mix-blend-mode:luminosity" clip-path="url(#clip0_151_410)">
<path d="M31.9976 13.4235C38.7758 13.4235 44.2706 10.4186 44.2706 6.71176C44.2706 3.00496 38.7758 0 31.9976 0C25.2194 0 19.7246 3.00496 19.7246 6.71176C19.7246 10.4186 25.2194 13.4235 31.9976 13.4235Z" fill="#E6007A"/>
<path d="M31.9976 63.9955C38.7758 63.9955 44.2706 60.9906 44.2706 57.2838C44.2706 53.577 38.7758 50.572 31.9976 50.572C25.2194 50.572 19.7246 53.577 19.7246 57.2838C19.7246 60.9906 25.2194 63.9955 31.9976 63.9955Z" fill="#E6007A"/>
<path d="M14.8943 22.7142C18.2834 17.1947 18.2614 11.2168 14.8452 9.36216C11.429 7.5075 5.91218 10.4784 2.52309 15.9979C-0.866003 21.5173 -0.844006 27.4952 2.57222 29.3498C5.98844 31.2045 11.5052 28.2336 14.8943 22.7142Z" fill="#E6007A"/>
<path d="M61.4668 47.9972C64.8559 42.4778 64.8357 36.5009 61.4218 34.6475C58.0079 32.7941 52.493 35.766 49.1039 41.2854C45.7148 46.8049 45.7349 52.7818 49.1489 54.6352C52.5628 56.4886 58.0777 53.5167 61.4668 47.9972Z" fill="#E6007A"/>
<path d="M14.8469 54.6334C18.2631 52.7788 18.2851 46.8009 14.896 41.2815C11.5069 35.762 5.99015 32.7911 2.57393 34.6458C-0.842297 36.5004 -0.864294 42.4783 2.5248 47.9978C5.91389 53.5172 11.4307 56.4881 14.8469 54.6334Z" fill="#E6007A"/>
<path d="M61.4246 29.3513C64.8386 27.4979 64.8587 21.521 61.4696 16.0016C58.0805 10.4821 52.5656 7.5102 49.1517 9.3636C45.7377 11.217 45.7176 17.1939 49.1067 22.7133C52.4958 28.2328 58.0107 31.2047 61.4246 29.3513Z" fill="#E6007A"/>
</g>
<defs>
<clipPath id="clip0_151_410">
<rect width="64" height="64" fill="white"/>
</clipPath>
</defs>
</svg>
