<svg width="64" height="64" viewBox="0 0 64 64" fill="none" xmlns="http://www.w3.org/2000/svg">
<g style="mix-blend-mode:luminosity" clip-path="url(#clip0_151_343)">
<path fill-rule="evenodd" clip-rule="evenodd" d="M23.0956 21.1478H41.0435C41.6785 21.1478 42.3129 21.241 42.976 21.5502C43.771 21.9207 44.1924 22.5048 44.4876 22.9366C44.5107 22.9702 44.5322 23.0048 44.5521 23.0403C44.8993 23.6583 45.0782 24.3257 45.0782 25.0435C45.0782 25.7255 44.916 26.4686 44.5521 27.1162C44.5486 27.1225 44.5451 27.1286 44.5415 27.1347L33.2023 46.613C32.9523 47.0425 32.4921 47.3062 31.9951 47.3043C31.498 47.3025 31.0397 47.0358 30.7926 46.6045L19.6616 27.1677C19.6584 27.1624 19.6552 27.1571 19.652 27.1519C19.3973 26.7321 19.0034 26.0829 18.9345 25.2452C18.8712 24.4749 19.0443 23.703 19.4314 23.0337C19.8184 22.3644 20.4012 21.8293 21.102 21.5018C21.8536 21.1506 22.6154 21.1478 23.0956 21.1478ZM30.6087 23.9304H23.0956C22.602 23.9304 22.4125 23.9608 22.2801 24.0227C22.097 24.1082 21.9431 24.2489 21.8401 24.4267C21.7373 24.6047 21.6908 24.8109 21.7078 25.0172C21.7175 25.1356 21.7657 25.2708 22.0501 25.74C22.0561 25.7498 22.0619 25.7597 22.0676 25.7697L30.6087 40.684V23.9304ZM33.3913 23.9304V40.7576L42.1302 25.7461C42.2289 25.5669 42.2956 25.308 42.2956 25.0435C42.2956 24.8289 42.2513 24.6426 42.1518 24.4505C42.0474 24.3005 41.9838 24.2211 41.9307 24.1667C41.8851 24.1202 41.85 24.0953 41.8005 24.0722C41.5939 23.9759 41.3824 23.9304 41.0435 23.9304H33.3913Z" fill="white"/>
<path fill-rule="evenodd" clip-rule="evenodd" d="M64 32C64 49.673 49.673 64 32 64C14.3268 64 0 49.673 0 32C0 14.3268 14.3268 0 32 0C49.673 0 64 14.3268 64 32ZM61.2174 32C61.2174 48.1363 48.1363 61.2174 32 61.2174C15.8637 61.2174 2.78261 48.1363 2.78261 32C2.78261 15.8637 15.8637 2.78261 32 2.78261C48.1363 2.78261 61.2174 15.8637 61.2174 32Z" fill="#0088CC"/>
</g>
<defs>
<clipPath id="clip0_151_343">
<rect width="64" height="64" fill="white"/>
</clipPath>
</defs>
</svg>
