<svg width="64" height="64" viewBox="0 0 64 64" fill="none" xmlns="http://www.w3.org/2000/svg">
<g style="mix-blend-mode:luminosity" clip-path="url(#clip0_151_374)">
<path d="M61.55 19.28C58.55 16.51 54.4001 12.28 51.0201 9.27999L50.82 9.14C50.4873 8.87277 50.1121 8.66321 49.71 8.52C41.5601 7 3.63005 -0.0900052 2.89005 -5.22652e-06C2.6827 0.0290348 2.4845 0.104213 2.31005 0.219995L2.12005 0.369995C1.88609 0.607596 1.7084 0.894639 1.60005 1.20999L1.55005 1.33999V2.04999V2.15999C5.82005 14.05 22.68 53 26 62.14C26.2001 62.76 26.5801 63.94 27.2901 64H27.4501C27.83 64 29.4501 61.86 29.4501 61.86C29.4501 61.86 58.41 26.74 61.34 23C61.7193 22.5393 62.0541 22.0438 62.34 21.52C62.413 21.1102 62.3786 20.6885 62.2402 20.2959C62.1017 19.9034 61.864 19.5534 61.55 19.28ZM36.8801 23.37L49.2401 13.12L56.4901 19.8L36.8801 23.37ZM32.0801 22.7L10.8 5.25999L45.23 11.61L32.0801 22.7ZM34 27.27L55.78 23.76L30.88 53.76L34 27.27ZM7.91005 6.99999L30.3 26L27.06 53.78L7.91005 6.99999Z" fill="#FF060A"/>
</g>
<defs>
<clipPath id="clip0_151_374">
<rect width="64" height="64" fill="white"/>
</clipPath>
</defs>
</svg>
